<svg width="417" height="265" viewBox="0 0 417 265" fill="none" xmlns="http://www.w3.org/2000/svg">
<path fill-rule="evenodd" clip-rule="evenodd" d="M0 128.572C8.33582 133.821 18.3886 137.821 30.5 140C83.8165 149.593 105.364 144.672 133.01 138.356C152.61 133.879 175.275 128.702 214.5 127.5C260.274 126.097 285.277 162.317 309.786 197.822C335.905 235.657 361.463 272.681 411 262.5C413.072 262.074 415.072 261.564 417 260.973V98C417 86.9543 408.046 78 397 78H20C8.9543 78 0 86.9543 0 98V128.572Z" fill="#0F172A"/>
<path fill-rule="evenodd" clip-rule="evenodd" d="M0 95.682C11.1334 107.07 25.4893 115.669 44 119C95.4156 128.251 119.516 120.661 147.746 111.769C169.543 104.903 193.803 97.2623 235 96C279.895 94.6244 299.172 110.502 317.317 125.446C337.387 141.976 356.07 157.365 406.5 147C410.278 146.223 413.773 145.263 417 144.134V56C417 44.9543 408.046 36 397 36H20C8.9543 36 0 44.9543 0 56V95.682Z" fill="#1E293B"/>
<path fill-rule="evenodd" clip-rule="evenodd" d="M0 74.1287C9.85412 81.2146 21.5525 86.5013 35.4391 89C84.9063 97.9008 106.012 87.6747 130.102 76.0029C150.384 66.176 172.781 55.3242 216 54C256.316 52.7647 281.974 57.7162 305.587 62.2732C336.674 68.2724 364.218 73.5879 417 63.2041V20C417 8.95431 408.046 0 397 0H20C8.9543 0 0 8.95429 0 20L0 74.1287Z" fill="#303D51"/>
</svg>
